<svg xmlns="http://www.w3.org/2000/svg" xmlns:xlink="http://www.w3.org/1999/xlink" width="240" zoomAndPan="magnify" viewBox="0 0 180 44.999999" height="60" preserveAspectRatio="xMidYMid meet" version="1.0"><defs><g/><clipPath id="69c56eb8c1"><path d="M 6.441406 13.066406 L 18.675781 13.066406 L 18.675781 22.5 L 6.441406 22.5 Z M 6.441406 13.066406 " clip-rule="nonzero"/></clipPath><clipPath id="76071f9aff"><path d="M 12.546875 13.066406 C 9.175781 13.066406 6.441406 15.175781 6.441406 17.78125 C 6.441406 20.386719 9.175781 22.5 12.546875 22.5 C 15.921875 22.5 18.65625 20.386719 18.65625 17.78125 C 18.65625 15.175781 15.921875 13.066406 12.546875 13.066406 Z M 12.546875 13.066406 " clip-rule="nonzero"/></clipPath><clipPath id="287855c464"><path d="M 0.441406 0.0664062 L 12.675781 0.0664062 L 12.675781 9.5 L 0.441406 9.5 Z M 0.441406 0.0664062 " clip-rule="nonzero"/></clipPath><clipPath id="2811548a7d"><path d="M 6.546875 0.0664062 C 3.175781 0.0664062 0.441406 2.175781 0.441406 4.78125 C 0.441406 7.386719 3.175781 9.5 6.546875 9.5 C 9.921875 9.5 12.65625 7.386719 12.65625 4.78125 C 12.65625 2.175781 9.921875 0.0664062 6.546875 0.0664062 Z M 6.546875 0.0664062 " clip-rule="nonzero"/></clipPath><clipPath id="c87dfcef47"><rect x="0" width="13" y="0" height="10"/></clipPath><clipPath id="87e340f256"><path d="M 2.929688 10 L 22.429688 10 L 22.429688 35.089844 L 2.929688 35.089844 Z M 2.929688 10 " clip-rule="nonzero"/></clipPath><clipPath id="e9c6187371"><rect x="0" width="155" y="0" height="20"/></clipPath></defs><g clip-path="url(#69c56eb8c1)"><g clip-path="url(#76071f9aff)"><g transform="matrix(1, 0, 0, 1, 6, 13)"><g clip-path="url(#c87dfcef47)"><g clip-path="url(#287855c464)"><g clip-path="url(#2811548a7d)"><path fill="#ffffff" d="M 0.441406 0.0664062 L 12.640625 0.0664062 L 12.640625 9.5 L 0.441406 9.5 Z M 0.441406 0.0664062 " fill-opacity="1" fill-rule="nonzero"/></g></g></g></g></g></g><g clip-path="url(#87e340f256)"><path fill="#008ff8" d="M 2.929688 27.429688 C 3.011719 24.355469 3.039062 21.386719 3.183594 18.421875 C 3.355469 14.882812 5.300781 12.570312 8.464844 11.175781 C 11.847656 9.683594 15.148438 9.609375 18.269531 11.835938 C 20.242188 13.242188 21.101562 15.292969 21.335938 17.621094 C 21.652344 20.765625 21.898438 23.925781 22.144531 27.082031 C 22.160156 27.253906 21.890625 27.613281 21.75 27.617188 C 18.945312 27.660156 18.136719 29.414062 17.863281 31.847656 C 17.765625 32.710938 17.21875 33.597656 16.675781 34.324219 C 16.203125 34.957031 15.578125 34.773438 15.285156 34.007812 C 15.039062 33.359375 14.902344 32.671875 14.738281 32 C 14.644531 31.597656 14.605469 31.179688 14.53125 30.765625 C 14.179688 28.796875 13.644531 28.367188 11.710938 28.730469 C 11.363281 28.796875 10.980469 29.308594 10.847656 29.699219 C 10.460938 30.796875 10.210938 31.941406 9.875 33.058594 C 9.6875 33.664062 9.503906 34.300781 9.167969 34.824219 C 8.972656 35.125 8.453125 35.382812 8.101562 35.355469 C 7.871094 35.335938 7.558594 34.796875 7.5 34.453125 C 7.230469 32.949219 7.042969 31.433594 6.816406 29.925781 C 6.582031 28.410156 5.605469 27.53125 4.054688 27.433594 C 3.703125 27.410156 3.34375 27.429688 2.929688 27.429688 Z M 12.746094 11.324219 C 11.28125 11.234375 9.828125 11.648438 8.480469 12.433594 C 6.757812 13.425781 5.710938 15.390625 6.011719 17.070312 C 6.34375 18.917969 7.359375 20.296875 9.070312 21.0625 C 11.273438 22.046875 13.546875 22.109375 15.796875 21.222656 C 19.183594 19.886719 20.105469 16.523438 17.945312 13.625 C 16.664062 11.90625 14.910156 11.300781 12.746094 11.324219 Z M 12.542969 15.285156 C 11.824219 15.316406 11.371094 15.828125 11.363281 16.617188 C 11.355469 17.417969 11.984375 18.035156 12.785156 18.023438 C 13.492188 18.011719 14.027344 17.453125 14.015625 16.734375 C 14 15.851562 13.390625 15.253906 12.542969 15.285156 Z M 12.542969 15.285156 " fill-opacity="1" fill-rule="nonzero"/></g><g transform="matrix(1, 0, 0, 1, 23, 12)"><g clip-path="url(#e9c6187371)"><g fill="#ffffff" fill-opacity="1"><g transform="translate(1.402519, 14.891081)"><g><path d="M 6 0.667969 C 4.835938 0.667969 3.796875 0.410156 2.890625 -0.101562 C 1.976562 -0.617188 1.265625 -1.324219 0.757812 -2.222656 C 0.257812 -3.117188 0.00390625 -4.117188 0.00390625 -5.222656 C 0.00390625 -6.46875 0.308594 -7.570312 0.914062 -8.523438 C 1.515625 -9.472656 2.335938 -10.207031 3.371094 -10.714844 C 4.390625 -11.21875 5.511719 -11.46875 6.738281 -11.46875 C 7.230469 -11.46875 7.6875 -11.4375 8.109375 -11.378906 C 8.53125 -11.316406 8.972656 -11.21875 9.429688 -11.078125 L 9.808594 -10.960938 L 9.808594 -8.214844 L 9.15625 -7.996094 L 8.941406 -8.136719 C 8.589844 -8.363281 8.183594 -8.542969 7.722656 -8.679688 C 7.261719 -8.8125 6.800781 -8.882812 6.34375 -8.882812 C 5.75 -8.882812 5.21875 -8.734375 4.746094 -8.445312 C 4.269531 -8.15625 3.898438 -7.75 3.628906 -7.230469 C 3.351562 -6.703125 3.214844 -6.097656 3.214844 -5.421875 C 3.214844 -4.765625 3.347656 -4.175781 3.609375 -3.652344 C 3.871094 -3.136719 4.226562 -2.734375 4.6875 -2.445312 C 5.140625 -2.15625 5.648438 -2.011719 6.210938 -2.011719 C 6.816406 -2.011719 7.371094 -2.109375 7.886719 -2.308594 C 8.394531 -2.5 8.808594 -2.757812 9.136719 -3.074219 L 9.367188 -3.300781 L 10.105469 -3.058594 L 9.964844 -0.363281 L 9.707031 -0.21875 C 8.65625 0.371094 7.421875 0.667969 6 0.667969 Z M 6 -0.402344 C 7.234375 -0.402344 8.292969 -0.652344 9.179688 -1.152344 L 9.445312 -0.6875 L 8.910156 -0.714844 L 9.015625 -2.707031 L 9.550781 -2.675781 L 9.378906 -2.167969 L 9.339844 -2.183594 L 9.507812 -2.691406 L 9.882812 -2.308594 C 9.453125 -1.886719 8.914062 -1.550781 8.269531 -1.304688 C 7.632812 -1.0625 6.945312 -0.941406 6.210938 -0.941406 C 5.441406 -0.941406 4.738281 -1.140625 4.113281 -1.539062 C 3.488281 -1.933594 3 -2.476562 2.652344 -3.167969 C 2.3125 -3.847656 2.140625 -4.597656 2.140625 -5.421875 C 2.140625 -6.273438 2.320312 -7.042969 2.675781 -7.726562 C 3.039062 -8.421875 3.542969 -8.964844 4.183594 -9.359375 C 4.828125 -9.753906 5.546875 -9.953125 6.34375 -9.953125 C 6.90625 -9.953125 7.464844 -9.871094 8.023438 -9.707031 C 8.585938 -9.542969 9.082031 -9.320312 9.523438 -9.035156 L 9.234375 -8.585938 L 9.0625 -9.09375 L 9.101562 -9.109375 L 9.273438 -8.597656 L 8.734375 -8.597656 L 8.734375 -10.566406 L 9.273438 -10.566406 L 9.113281 -10.050781 C 8.710938 -10.175781 8.324219 -10.265625 7.957031 -10.316406 C 7.585938 -10.371094 7.179688 -10.398438 6.738281 -10.398438 C 5.679688 -10.398438 4.714844 -10.183594 3.84375 -9.753906 C 2.988281 -9.332031 2.3125 -8.730469 1.816406 -7.949219 C 1.324219 -7.171875 1.078125 -6.261719 1.078125 -5.222656 C 1.078125 -4.304688 1.28125 -3.480469 1.695312 -2.75 C 2.101562 -2.023438 2.675781 -1.449219 3.414062 -1.035156 C 4.160156 -0.613281 5.023438 -0.402344 6 -0.402344 Z M 6 -0.402344 "/></g></g></g><g fill="#ffffff" fill-opacity="1"><g transform="translate(11.384121, 14.891081)"><g><path d="M 9.359375 -10.800781 L 9.359375 -10.542969 L 9.207031 -10.390625 C 8.925781 -10.097656 8.597656 -9.613281 8.226562 -8.933594 L 5.742188 -4.5625 L 5.277344 -4.828125 L 5.8125 -4.828125 L 5.8125 -3.097656 C 5.8125 -2.476562 5.84375 -1.945312 5.910156 -1.503906 C 5.976562 -1.070312 6.085938 -0.628906 6.242188 -0.175781 L 6.488281 0.535156 L 2.117188 0.535156 L 2.371094 -0.179688 C 2.527344 -0.621094 2.636719 -1.058594 2.703125 -1.484375 C 2.769531 -1.921875 2.800781 -2.457031 2.800781 -3.097656 L 2.800781 -4.773438 L 3.335938 -4.773438 L 2.871094 -4.507812 L 0.40625 -8.792969 C 0.164062 -9.210938 -0.0507812 -9.542969 -0.234375 -9.785156 C -0.410156 -10.011719 -0.585938 -10.199219 -0.765625 -10.351562 L -0.957031 -10.511719 L -0.957031 -11.335938 L 3.179688 -11.335938 L 3.074219 -10.714844 C 3.0625 -10.636719 3.054688 -10.558594 3.054688 -10.472656 C 3.054688 -10.164062 3.171875 -9.804688 3.40625 -9.394531 L 4.804688 -6.9375 L 4.339844 -6.671875 L 3.871094 -6.9375 L 5.269531 -9.429688 C 5.496094 -9.847656 5.609375 -10.214844 5.609375 -10.539062 C 5.609375 -10.570312 5.609375 -10.59375 5.605469 -10.609375 C 5.605469 -10.613281 5.605469 -10.613281 5.605469 -10.613281 C 5.609375 -10.605469 5.609375 -10.597656 5.613281 -10.589844 L 5.292969 -11.335938 L 9.359375 -11.335938 Z M 8.289062 -10.800781 L 8.824219 -10.800781 L 8.824219 -10.265625 L 6.105469 -10.265625 L 6.105469 -10.800781 L 6.597656 -11.011719 C 6.65625 -10.882812 6.683594 -10.726562 6.683594 -10.539062 C 6.683594 -10.035156 6.523438 -9.488281 6.203125 -8.90625 L 4.34375 -5.585938 L 2.476562 -8.859375 C 2.148438 -9.4375 1.984375 -9.972656 1.984375 -10.472656 C 1.984375 -10.617188 1.996094 -10.753906 2.015625 -10.890625 L 2.546875 -10.800781 L 2.546875 -10.265625 L -0.421875 -10.265625 L -0.421875 -10.800781 L 0.113281 -10.800781 L 0.113281 -10.761719 L -0.421875 -10.761719 L -0.078125 -11.175781 C 0.164062 -10.972656 0.394531 -10.726562 0.617188 -10.433594 C 0.828125 -10.15625 1.066406 -9.789062 1.335938 -9.328125 L 3.871094 -4.917969 L 3.871094 -3.097656 C 3.871094 -2.402344 3.835938 -1.8125 3.761719 -1.324219 C 3.6875 -0.828125 3.558594 -0.328125 3.378906 0.179688 L 2.875 0 L 2.875 -0.535156 L 5.738281 -0.535156 L 5.738281 0 L 5.230469 0.175781 C 5.054688 -0.339844 4.925781 -0.847656 4.851562 -1.34375 C 4.777344 -1.835938 4.738281 -2.421875 4.738281 -3.097656 L 4.738281 -4.96875 L 7.285156 -9.449219 C 7.703125 -10.214844 8.089844 -10.777344 8.441406 -11.136719 L 8.824219 -10.761719 L 8.289062 -10.761719 Z M 8.289062 -10.800781 "/></g></g></g><g fill="#ffffff" fill-opacity="1"><g transform="translate(19.440508, 14.891081)"><g><path d="M 6 0.667969 C 4.835938 0.667969 3.796875 0.410156 2.890625 -0.101562 C 1.976562 -0.617188 1.265625 -1.324219 0.757812 -2.222656 C 0.257812 -3.117188 0.00390625 -4.117188 0.00390625 -5.222656 C 0.00390625 -6.46875 0.308594 -7.570312 0.914062 -8.523438 C 1.515625 -9.472656 2.335938 -10.207031 3.371094 -10.714844 C 4.390625 -11.21875 5.511719 -11.46875 6.738281 -11.46875 C 7.230469 -11.46875 7.6875 -11.4375 8.109375 -11.378906 C 8.53125 -11.316406 8.972656 -11.21875 9.429688 -11.078125 L 9.808594 -10.960938 L 9.808594 -8.214844 L 9.15625 -7.996094 L 8.941406 -8.136719 C 8.589844 -8.363281 8.183594 -8.542969 7.722656 -8.679688 C 7.261719 -8.8125 6.800781 -8.882812 6.34375 -8.882812 C 5.75 -8.882812 5.21875 -8.734375 4.746094 -8.445312 C 4.269531 -8.15625 3.898438 -7.75 3.628906 -7.230469 C 3.351562 -6.703125 3.214844 -6.097656 3.214844 -5.421875 C 3.214844 -4.765625 3.347656 -4.175781 3.609375 -3.652344 C 3.871094 -3.136719 4.226562 -2.734375 4.6875 -2.445312 C 5.140625 -2.15625 5.648438 -2.011719 6.210938 -2.011719 C 6.816406 -2.011719 7.371094 -2.109375 7.886719 -2.308594 C 8.394531 -2.5 8.808594 -2.757812 9.136719 -3.074219 L 9.367188 -3.300781 L 10.105469 -3.058594 L 9.964844 -0.363281 L 9.707031 -0.21875 C 8.65625 0.371094 7.421875 0.667969 6 0.667969 Z M 6 -0.402344 C 7.234375 -0.402344 8.292969 -0.652344 9.179688 -1.152344 L 9.445312 -0.6875 L 8.910156 -0.714844 L 9.015625 -2.707031 L 9.550781 -2.675781 L 9.378906 -2.167969 L 9.339844 -2.183594 L 9.507812 -2.691406 L 9.882812 -2.308594 C 9.453125 -1.886719 8.914062 -1.550781 8.269531 -1.304688 C 7.632812 -1.0625 6.945312 -0.941406 6.210938 -0.941406 C 5.441406 -0.941406 4.738281 -1.140625 4.113281 -1.539062 C 3.488281 -1.933594 3 -2.476562 2.652344 -3.167969 C 2.3125 -3.847656 2.140625 -4.597656 2.140625 -5.421875 C 2.140625 -6.273438 2.320312 -7.042969 2.675781 -7.726562 C 3.039062 -8.421875 3.542969 -8.964844 4.183594 -9.359375 C 4.828125 -9.753906 5.546875 -9.953125 6.34375 -9.953125 C 6.90625 -9.953125 7.464844 -9.871094 8.023438 -9.707031 C 8.585938 -9.542969 9.082031 -9.320312 9.523438 -9.035156 L 9.234375 -8.585938 L 9.0625 -9.09375 L 9.101562 -9.109375 L 9.273438 -8.597656 L 8.734375 -8.597656 L 8.734375 -10.566406 L 9.273438 -10.566406 L 9.113281 -10.050781 C 8.710938 -10.175781 8.324219 -10.265625 7.957031 -10.316406 C 7.585938 -10.371094 7.179688 -10.398438 6.738281 -10.398438 C 5.679688 -10.398438 4.714844 -10.183594 3.84375 -9.753906 C 2.988281 -9.332031 2.3125 -8.730469 1.816406 -7.949219 C 1.324219 -7.171875 1.078125 -6.261719 1.078125 -5.222656 C 1.078125 -4.304688 1.28125 -3.480469 1.695312 -2.75 C 2.101562 -2.023438 2.675781 -1.449219 3.414062 -1.035156 C 4.160156 -0.613281 5.023438 -0.402344 6 -0.402344 Z M 6 -0.402344 "/></g></g></g><g fill="#ffffff" fill-opacity="1"><g transform="translate(29.42211, 14.891081)"><g><path d="M 0.257812 -0.175781 C 0.414062 -0.628906 0.527344 -1.070312 0.589844 -1.503906 C 0.65625 -1.945312 0.691406 -2.476562 0.691406 -3.097656 L 0.691406 -7.703125 C 0.691406 -8.328125 0.65625 -8.859375 0.589844 -9.296875 C 0.527344 -9.730469 0.414062 -10.175781 0.257812 -10.628906 L 0.0117188 -11.335938 L 4.378906 -11.335938 L 4.132812 -10.628906 C 3.976562 -10.175781 3.867188 -9.730469 3.800781 -9.296875 C 3.734375 -8.859375 3.703125 -8.328125 3.703125 -7.703125 L 3.703125 -1.449219 L 3.164062 -1.449219 L 3.125 -1.984375 C 3.773438 -2.035156 4.488281 -2.15625 5.273438 -2.347656 C 6.046875 -2.535156 6.640625 -2.734375 7.050781 -2.945312 L 7.398438 -3.121094 L 7.953125 -2.566406 L 6.675781 0.535156 L 0.0117188 0.535156 Z M 1.269531 0.175781 L 0.765625 0 L 0.765625 -0.535156 L 6.316406 -0.535156 L 6.316406 0 L 5.820312 -0.203125 L 6.824219 -2.644531 L 7.320312 -2.441406 L 6.941406 -2.0625 L 6.914062 -2.085938 L 7.292969 -2.464844 L 7.535156 -1.988281 C 7.050781 -1.742188 6.382812 -1.515625 5.527344 -1.304688 C 4.6875 -1.101562 3.914062 -0.972656 3.207031 -0.917969 L 2.628906 -0.871094 L 2.628906 -7.703125 C 2.628906 -8.378906 2.667969 -8.964844 2.742188 -9.457031 C 2.816406 -9.957031 2.941406 -10.460938 3.121094 -10.976562 L 3.628906 -10.800781 L 3.628906 -10.265625 L 0.765625 -10.265625 L 0.765625 -10.800781 L 1.269531 -10.976562 C 1.449219 -10.460938 1.574219 -9.957031 1.652344 -9.457031 C 1.726562 -8.964844 1.761719 -8.378906 1.761719 -7.703125 L 1.761719 -3.097656 C 1.761719 -2.421875 1.726562 -1.835938 1.652344 -1.34375 C 1.574219 -0.847656 1.449219 -0.339844 1.269531 0.175781 Z M 1.269531 0.175781 "/></g></g></g><g fill="#ffffff" fill-opacity="1"><g transform="translate(36.304982, 14.891081)"><g><path d="M 6.277344 -11.46875 C 7.417969 -11.46875 8.46875 -11.226562 9.421875 -10.738281 C 10.390625 -10.246094 11.15625 -9.546875 11.722656 -8.640625 C 12.292969 -7.730469 12.578125 -6.691406 12.578125 -5.527344 C 12.578125 -4.347656 12.296875 -3.285156 11.738281 -2.339844 C 11.179688 -1.390625 10.410156 -0.652344 9.4375 -0.121094 C 8.46875 0.402344 7.398438 0.667969 6.226562 0.667969 C 5.003906 0.667969 3.917969 0.386719 2.964844 -0.171875 C 2.015625 -0.730469 1.285156 -1.476562 0.769531 -2.40625 C 0.261719 -3.328125 0.00390625 -4.3125 0.00390625 -5.355469 C 0.00390625 -6.464844 0.28125 -7.488281 0.839844 -8.425781 C 1.390625 -9.359375 2.148438 -10.097656 3.109375 -10.648438 C 4.074219 -11.195312 5.128906 -11.46875 6.277344 -11.46875 Z M 6.277344 -10.398438 C 5.316406 -10.398438 4.4375 -10.171875 3.640625 -9.714844 C 2.84375 -9.261719 2.21875 -8.648438 1.761719 -7.878906 C 1.304688 -7.109375 1.078125 -6.269531 1.078125 -5.355469 C 1.078125 -4.496094 1.289062 -3.6875 1.707031 -2.921875 C 2.128906 -2.164062 2.726562 -1.554688 3.511719 -1.09375 C 4.292969 -0.632812 5.195312 -0.402344 6.226562 -0.402344 C 7.214844 -0.402344 8.113281 -0.625 8.921875 -1.0625 C 9.726562 -1.5 10.355469 -2.105469 10.816406 -2.882812 C 11.277344 -3.660156 11.507812 -4.542969 11.507812 -5.527344 C 11.507812 -6.488281 11.277344 -7.335938 10.816406 -8.070312 C 10.355469 -8.808594 9.726562 -9.378906 8.9375 -9.785156 C 8.132812 -10.191406 7.246094 -10.398438 6.277344 -10.398438 Z M 5.910156 -8.921875 C 5.425781 -8.921875 4.980469 -8.796875 4.566406 -8.554688 C 4.15625 -8.3125 3.828125 -7.957031 3.585938 -7.5 C 3.335938 -7.027344 3.214844 -6.476562 3.214844 -5.84375 C 3.214844 -5.140625 3.359375 -4.480469 3.65625 -3.863281 C 3.945312 -3.261719 4.351562 -2.78125 4.875 -2.421875 C 5.382812 -2.070312 5.964844 -1.894531 6.621094 -1.894531 C 7.15625 -1.894531 7.632812 -2.027344 8.042969 -2.296875 C 8.464844 -2.566406 8.789062 -2.9375 9.023438 -3.410156 C 9.261719 -3.894531 9.382812 -4.425781 9.382812 -5.011719 C 9.382812 -5.714844 9.226562 -6.371094 8.910156 -6.972656 C 8.597656 -7.570312 8.171875 -8.046875 7.632812 -8.402344 C 7.105469 -8.746094 6.53125 -8.921875 5.910156 -8.921875 Z M 5.910156 -9.992188 C 6.746094 -9.992188 7.515625 -9.761719 8.222656 -9.296875 C 8.914062 -8.84375 9.460938 -8.234375 9.859375 -7.46875 C 10.253906 -6.710938 10.453125 -5.890625 10.453125 -5.011719 C 10.453125 -4.261719 10.296875 -3.566406 9.984375 -2.933594 C 9.664062 -2.289062 9.210938 -1.777344 8.628906 -1.398438 C 8.039062 -1.015625 7.367188 -0.824219 6.621094 -0.824219 C 5.746094 -0.824219 4.960938 -1.0625 4.265625 -1.535156 C 3.585938 -2.003906 3.058594 -2.625 2.6875 -3.402344 C 2.324219 -4.164062 2.140625 -4.980469 2.140625 -5.84375 C 2.140625 -6.652344 2.308594 -7.371094 2.640625 -8 C 2.976562 -8.636719 3.4375 -9.128906 4.019531 -9.476562 C 4.601562 -9.820312 5.230469 -9.992188 5.910156 -9.992188 Z M 5.910156 -9.992188 "/></g></g></g><g fill="#ffffff" fill-opacity="1"><g transform="translate(48.936915, 14.891081)"><g><path d="M 3.46875 -11.335938 C 4.445312 -11.335938 5.285156 -11.171875 5.984375 -10.84375 C 6.707031 -10.507812 7.253906 -10.046875 7.625 -9.46875 C 8 -8.890625 8.1875 -8.242188 8.1875 -7.53125 C 8.1875 -6.75 7.996094 -6.0625 7.621094 -5.46875 C 7.242188 -4.875 6.707031 -4.421875 6.015625 -4.109375 C 5.355469 -3.808594 4.585938 -3.660156 3.71875 -3.660156 C 3.507812 -3.660156 3.304688 -3.667969 3.113281 -3.6875 L 3.164062 -4.21875 L 3.703125 -4.21875 L 3.703125 -3.097656 C 3.703125 -2.476562 3.734375 -1.945312 3.800781 -1.503906 C 3.867188 -1.070312 3.976562 -0.628906 4.132812 -0.175781 L 4.378906 0.535156 L 0.0117188 0.535156 L 0.257812 -0.175781 C 0.414062 -0.628906 0.527344 -1.070312 0.589844 -1.503906 C 0.65625 -1.945312 0.691406 -2.476562 0.691406 -3.097656 L 0.691406 -7.703125 C 0.691406 -8.328125 0.65625 -8.859375 0.589844 -9.296875 C 0.527344 -9.730469 0.414062 -10.175781 0.257812 -10.628906 L 0.0117188 -11.335938 Z M 3.46875 -10.265625 L 0.765625 -10.265625 L 0.765625 -10.800781 L 1.269531 -10.976562 C 1.449219 -10.460938 1.574219 -9.957031 1.652344 -9.457031 C 1.726562 -8.964844 1.761719 -8.378906 1.761719 -7.703125 L 1.761719 -3.097656 C 1.761719 -2.421875 1.726562 -1.835938 1.652344 -1.34375 C 1.574219 -0.847656 1.449219 -0.339844 1.269531 0.175781 L 0.765625 0 L 0.765625 -0.535156 L 3.628906 -0.535156 L 3.628906 0 L 3.121094 0.175781 C 2.941406 -0.339844 2.816406 -0.847656 2.742188 -1.34375 C 2.667969 -1.835938 2.628906 -2.421875 2.628906 -3.097656 L 2.628906 -4.8125 L 3.21875 -4.753906 C 3.375 -4.738281 3.542969 -4.730469 3.71875 -4.730469 C 4.433594 -4.730469 5.050781 -4.847656 5.574219 -5.085938 C 6.070312 -5.308594 6.453125 -5.628906 6.714844 -6.042969 C 6.980469 -6.460938 7.113281 -6.957031 7.113281 -7.53125 C 7.113281 -8.03125 6.984375 -8.484375 6.722656 -8.890625 C 6.464844 -9.296875 6.066406 -9.625 5.53125 -9.875 C 4.972656 -10.136719 4.285156 -10.265625 3.46875 -10.265625 Z M 3.105469 -5.597656 C 3.75 -5.671875 4.25 -5.882812 4.613281 -6.234375 C 4.953125 -6.5625 5.121094 -6.960938 5.121094 -7.425781 C 5.121094 -7.886719 4.960938 -8.269531 4.636719 -8.570312 C 4.300781 -8.890625 3.816406 -9.0625 3.191406 -9.09375 L 3.21875 -9.628906 L 3.75 -9.578125 C 3.71875 -9.207031 3.703125 -8.75 3.703125 -8.203125 L 3.703125 -5.066406 L 3.164062 -5.066406 Z M 2.628906 -4.464844 L 2.628906 -8.203125 C 2.628906 -8.78125 2.648438 -9.273438 2.683594 -9.675781 L 2.730469 -10.1875 L 3.242188 -10.164062 C 4.132812 -10.121094 4.839844 -9.851562 5.371094 -9.351562 C 5.921875 -8.839844 6.195312 -8.195312 6.195312 -7.425781 C 6.195312 -6.660156 5.914062 -6.003906 5.359375 -5.464844 C 4.824219 -4.945312 4.113281 -4.632812 3.226562 -4.53125 Z M 2.628906 -4.464844 "/></g></g></g><g fill="#ffffff" fill-opacity="1"><g transform="translate(57.006592, 14.891081)"><g><path d="M 3.097656 0.667969 C 2.160156 0.667969 1.308594 0.515625 0.539062 0.207031 L 0.203125 0.0742188 L 0.203125 -3.410156 L 1.042969 -3.410156 L 1.203125 -3.21875 C 1.640625 -2.691406 2.011719 -2.332031 2.316406 -2.144531 C 2.578125 -1.976562 2.871094 -1.894531 3.191406 -1.894531 C 3.464844 -1.894531 3.691406 -1.976562 3.863281 -2.136719 C 4.027344 -2.285156 4.105469 -2.472656 4.105469 -2.703125 C 4.105469 -2.847656 4.078125 -2.96875 4.019531 -3.070312 C 3.949219 -3.195312 3.808594 -3.335938 3.597656 -3.5 C 3.347656 -3.691406 2.976562 -3.933594 2.484375 -4.21875 C 1.648438 -4.710938 1.050781 -5.230469 0.691406 -5.78125 C 0.320312 -6.347656 0.136719 -7.019531 0.136719 -7.792969 C 0.136719 -8.4375 0.300781 -9.039062 0.625 -9.597656 C 0.949219 -10.164062 1.410156 -10.613281 2.007812 -10.957031 C 2.605469 -11.300781 3.28125 -11.46875 4.035156 -11.46875 C 4.882812 -11.46875 5.671875 -11.292969 6.40625 -10.941406 L 6.707031 -10.796875 L 6.707031 -8.121094 L 6.007812 -7.886719 L 5.773438 -8.097656 C 5.457031 -8.378906 5.171875 -8.578125 4.910156 -8.683594 C 4.660156 -8.789062 4.390625 -8.839844 4.101562 -8.839844 C 3.804688 -8.839844 3.574219 -8.765625 3.414062 -8.613281 C 3.261719 -8.46875 3.1875 -8.296875 3.1875 -8.097656 C 3.1875 -7.875 3.277344 -7.65625 3.457031 -7.4375 C 3.679688 -7.171875 4.101562 -6.859375 4.714844 -6.503906 C 5.300781 -6.164062 5.773438 -5.847656 6.121094 -5.554688 C 6.507812 -5.230469 6.792969 -4.867188 6.988281 -4.464844 C 7.179688 -4.054688 7.277344 -3.585938 7.277344 -3.046875 C 7.277344 -2.277344 7.082031 -1.609375 6.695312 -1.039062 C 6.3125 -0.476562 5.800781 -0.046875 5.160156 0.242188 C 4.542969 0.527344 3.855469 0.667969 3.097656 0.667969 Z M 3.097656 -0.402344 C 3.699219 -0.402344 4.238281 -0.511719 4.71875 -0.730469 C 5.175781 -0.941406 5.539062 -1.242188 5.808594 -1.640625 C 6.070312 -2.027344 6.203125 -2.496094 6.203125 -3.046875 C 6.203125 -3.421875 6.140625 -3.742188 6.019531 -4.003906 C 5.894531 -4.269531 5.699219 -4.511719 5.433594 -4.734375 C 5.132812 -4.984375 4.710938 -5.265625 4.175781 -5.578125 C 3.453125 -5.996094 2.9375 -6.386719 2.636719 -6.753906 C 2.289062 -7.167969 2.113281 -7.617188 2.113281 -8.097656 C 2.113281 -8.601562 2.300781 -9.035156 2.675781 -9.390625 C 3.042969 -9.738281 3.519531 -9.914062 4.101562 -9.914062 C 4.535156 -9.914062 4.941406 -9.832031 5.324219 -9.675781 C 5.695312 -9.519531 6.085938 -9.257812 6.492188 -8.890625 L 6.132812 -8.492188 L 5.964844 -9.003906 L 6.003906 -9.015625 L 6.171875 -8.507812 L 5.636719 -8.507812 L 5.636719 -10.460938 L 6.171875 -10.460938 L 5.941406 -9.976562 C 5.355469 -10.257812 4.71875 -10.398438 4.035156 -10.398438 C 3.472656 -10.398438 2.972656 -10.273438 2.542969 -10.027344 C 2.109375 -9.78125 1.78125 -9.460938 1.550781 -9.0625 C 1.324219 -8.667969 1.207031 -8.246094 1.207031 -7.792969 C 1.207031 -7.234375 1.335938 -6.757812 1.589844 -6.367188 C 1.855469 -5.957031 2.335938 -5.550781 3.027344 -5.144531 C 3.558594 -4.835938 3.964844 -4.570312 4.25 -4.347656 C 4.574219 -4.097656 4.808594 -3.847656 4.949219 -3.601562 C 5.101562 -3.335938 5.179688 -3.035156 5.179688 -2.703125 C 5.179688 -2.160156 4.980469 -1.707031 4.589844 -1.347656 C 4.210938 -0.996094 3.746094 -0.824219 3.191406 -0.824219 C 2.667969 -0.824219 2.1875 -0.960938 1.746094 -1.234375 C 1.347656 -1.484375 0.890625 -1.917969 0.378906 -2.53125 L 0.792969 -2.875 L 0.792969 -2.339844 L 0.738281 -2.339844 L 0.738281 -2.875 L 1.273438 -2.875 L 1.273438 -0.289062 L 0.738281 -0.289062 L 0.9375 -0.789062 C 1.578125 -0.53125 2.296875 -0.402344 3.097656 -0.402344 Z M 3.097656 -0.402344 "/></g></g></g><g fill="#ffffff" fill-opacity="1"><g transform="translate(64.403794, 14.891081)"><g/></g></g><g fill="#ffffff" fill-opacity="1"><g transform="translate(67.687056, 14.891081)"><g><path d="M 14.363281 -10.550781 C 14.027344 -9.917969 13.691406 -8.980469 13.351562 -7.746094 L 11.09375 0.535156 L 8.453125 0.535156 L 6.351562 -5.550781 L 6.859375 -5.722656 L 7.363281 -5.546875 L 5.246094 0.535156 L 2.613281 0.535156 L 0.339844 -7.746094 C -0.0078125 -9.027344 -0.351562 -9.957031 -0.6875 -10.53125 L -1.160156 -11.335938 L 3.179688 -11.335938 L 3.074219 -10.714844 C 3.035156 -10.480469 3.015625 -10.257812 3.015625 -10.050781 C 3.015625 -9.492188 3.125 -8.816406 3.339844 -8.027344 L 4.605469 -3.371094 L 4.089844 -3.230469 L 3.582031 -3.410156 L 6.441406 -11.417969 L 7.261719 -11.417969 L 10.105469 -3.449219 L 9.601562 -3.269531 L 9.085938 -3.414062 L 10.351562 -8.027344 C 10.566406 -8.84375 10.675781 -9.511719 10.675781 -10.035156 C 10.675781 -10.253906 10.65625 -10.480469 10.617188 -10.714844 L 10.511719 -11.335938 L 14.777344 -11.335938 Z M 13.414062 -11.050781 L 13.886719 -10.800781 L 13.886719 -10.265625 L 11.144531 -10.265625 L 11.144531 -10.800781 L 11.671875 -10.890625 C 11.722656 -10.597656 11.746094 -10.3125 11.746094 -10.035156 C 11.746094 -9.417969 11.625 -8.65625 11.382812 -7.746094 L 9.667969 -1.488281 L 6.378906 -10.699219 L 6.886719 -10.882812 L 6.886719 -10.34375 L 6.820312 -10.34375 L 6.820312 -10.882812 L 7.324219 -10.699219 L 4.019531 -1.445312 L 2.304688 -7.746094 C 2.0625 -8.628906 1.945312 -9.394531 1.945312 -10.050781 C 1.945312 -10.316406 1.96875 -10.597656 2.015625 -10.890625 L 2.546875 -10.800781 L 2.546875 -10.265625 L -0.222656 -10.265625 L -0.222656 -10.800781 L 0.238281 -11.074219 C 0.621094 -10.417969 1 -9.402344 1.375 -8.027344 L 3.539062 -0.140625 L 3.019531 0 L 3.019531 -0.535156 L 4.867188 -0.535156 L 4.867188 0 L 4.359375 -0.175781 L 6.859375 -7.359375 L 9.34375 -0.175781 L 8.835938 0 L 8.835938 -0.535156 L 10.683594 -0.535156 L 10.683594 0 L 10.167969 -0.140625 L 12.316406 -8.03125 C 12.679688 -9.34375 13.042969 -10.347656 13.414062 -11.050781 Z M 13.414062 -11.050781 "/></g></g></g><g fill="#ffffff" fill-opacity="1"><g transform="translate(81.413403, 14.891081)"><g><path d="M 0.257812 -0.175781 C 0.414062 -0.628906 0.527344 -1.070312 0.589844 -1.503906 C 0.65625 -1.945312 0.691406 -2.476562 0.691406 -3.097656 L 0.691406 -7.703125 C 0.691406 -8.328125 0.65625 -8.859375 0.589844 -9.296875 C 0.527344 -9.730469 0.414062 -10.175781 0.257812 -10.628906 L 0.0117188 -11.335938 L 7.796875 -11.335938 L 6.269531 -7.996094 L 5.757812 -8.296875 C 5.070312 -8.695312 4.203125 -8.910156 3.152344 -8.933594 L 3.164062 -9.46875 L 3.703125 -9.46875 L 3.703125 -6.199219 L 3.164062 -6.199219 L 3.164062 -6.734375 L 7.53125 -6.734375 L 5.722656 -3.65625 L 5.285156 -3.847656 C 4.722656 -4.09375 4.007812 -4.238281 3.140625 -4.277344 L 3.164062 -4.8125 L 3.703125 -4.8125 L 3.703125 -1.398438 L 3.164062 -1.398438 L 3.164062 -1.933594 C 4.011719 -1.933594 4.765625 -1.992188 5.417969 -2.109375 C 6.0625 -2.226562 6.691406 -2.417969 7.304688 -2.679688 L 7.640625 -2.824219 L 8.175781 -2.289062 L 7.003906 0.535156 L 0.0117188 0.535156 Z M 1.269531 0.175781 L 0.765625 0 L 0.765625 -0.535156 L 6.648438 -0.535156 L 6.648438 0 L 6.152344 -0.207031 L 7.050781 -2.367188 L 7.542969 -2.164062 L 7.164062 -1.785156 L 7.140625 -1.808594 L 7.519531 -2.1875 L 7.730469 -1.699219 C 7.042969 -1.398438 6.335938 -1.1875 5.609375 -1.054688 C 4.890625 -0.925781 4.078125 -0.863281 3.164062 -0.863281 L 2.628906 -0.863281 L 2.628906 -5.375 L 3.191406 -5.347656 C 4.1875 -5.300781 5.03125 -5.128906 5.714844 -4.832031 L 5.5 -4.339844 L 5.039062 -4.609375 L 6.132812 -6.472656 L 6.59375 -6.199219 L 6.59375 -5.664062 L 2.628906 -5.664062 L 2.628906 -10.019531 L 3.179688 -10.003906 C 4.414062 -9.976562 5.453125 -9.714844 6.296875 -9.21875 L 6.027344 -8.757812 L 5.539062 -8.980469 L 6.476562 -11.023438 L 6.964844 -10.800781 L 6.964844 -10.265625 L 0.765625 -10.265625 L 0.765625 -10.800781 L 1.269531 -10.976562 C 1.449219 -10.460938 1.574219 -9.957031 1.652344 -9.457031 C 1.726562 -8.964844 1.761719 -8.378906 1.761719 -7.703125 L 1.761719 -3.097656 C 1.761719 -2.421875 1.726562 -1.835938 1.652344 -1.34375 C 1.574219 -0.847656 1.449219 -0.339844 1.269531 0.175781 Z M 1.269531 0.175781 "/></g></g></g><g fill="#ffffff" fill-opacity="1"><g transform="translate(89.034765, 14.891081)"><g><path d="M 6.074219 -6.253906 C 6.796875 -5.828125 7.335938 -5.371094 7.6875 -4.882812 C 8.0625 -4.363281 8.25 -3.761719 8.25 -3.074219 C 8.25 -2.351562 8.035156 -1.710938 7.597656 -1.148438 C 7.179688 -0.609375 6.625 -0.191406 5.925781 0.105469 C 5.25 0.390625 4.511719 0.535156 3.71875 0.535156 L 0.0117188 0.535156 L 0.257812 -0.175781 C 0.414062 -0.628906 0.527344 -1.070312 0.589844 -1.503906 C 0.65625 -1.945312 0.691406 -2.476562 0.691406 -3.097656 L 0.691406 -7.703125 C 0.691406 -8.328125 0.65625 -8.859375 0.589844 -9.296875 C 0.527344 -9.730469 0.414062 -10.175781 0.257812 -10.628906 L 0.0117188 -11.335938 L 3.691406 -11.335938 C 4.464844 -11.335938 5.152344 -11.199219 5.75 -10.925781 C 6.367188 -10.644531 6.847656 -10.25 7.195312 -9.746094 C 7.546875 -9.234375 7.722656 -8.652344 7.722656 -8.003906 C 7.722656 -7.472656 7.574219 -6.96875 7.277344 -6.5 C 6.992188 -6.050781 6.597656 -5.664062 6.09375 -5.339844 L 5.804688 -5.789062 Z M 5.53125 -5.328125 L 4.777344 -5.769531 L 5.515625 -6.242188 C 5.886719 -6.480469 6.171875 -6.757812 6.371094 -7.070312 C 6.558594 -7.367188 6.652344 -7.679688 6.652344 -8.003906 C 6.652344 -8.429688 6.539062 -8.808594 6.3125 -9.140625 C 6.078125 -9.480469 5.742188 -9.75 5.304688 -9.953125 C 4.847656 -10.160156 4.308594 -10.265625 3.691406 -10.265625 L 0.765625 -10.265625 L 0.765625 -10.800781 L 1.269531 -10.976562 C 1.449219 -10.460938 1.574219 -9.957031 1.652344 -9.457031 C 1.726562 -8.964844 1.761719 -8.378906 1.761719 -7.703125 L 1.761719 -3.097656 C 1.761719 -2.421875 1.726562 -1.835938 1.652344 -1.34375 C 1.574219 -0.847656 1.449219 -0.339844 1.269531 0.175781 L 0.765625 0 L 0.765625 -0.535156 L 3.71875 -0.535156 C 4.367188 -0.535156 4.964844 -0.652344 5.507812 -0.882812 C 6.035156 -1.105469 6.449219 -1.414062 6.75 -1.804688 C 7.035156 -2.175781 7.179688 -2.597656 7.179688 -3.074219 C 7.179688 -3.527344 7.058594 -3.921875 6.820312 -4.257812 C 6.554688 -4.621094 6.125 -4.980469 5.53125 -5.328125 Z M 3.054688 -6.339844 C 3.582031 -6.449219 3.988281 -6.65625 4.28125 -6.964844 C 4.550781 -7.246094 4.6875 -7.554688 4.6875 -7.886719 C 4.6875 -8.113281 4.625 -8.324219 4.496094 -8.515625 C 4.363281 -8.71875 4.183594 -8.878906 3.949219 -9 C 3.710938 -9.121094 3.449219 -9.183594 3.164062 -9.183594 L 3.164062 -9.71875 L 3.703125 -9.71875 L 3.703125 -5.816406 L 3.164062 -5.816406 Z M 2.628906 -5.15625 L 2.628906 -10.257812 L 3.164062 -10.257812 C 3.621094 -10.257812 4.046875 -10.15625 4.4375 -9.953125 C 4.839844 -9.746094 5.15625 -9.464844 5.394531 -9.105469 C 5.636719 -8.734375 5.757812 -8.328125 5.757812 -7.886719 C 5.757812 -7.269531 5.523438 -6.714844 5.054688 -6.222656 C 4.609375 -5.757812 4.015625 -5.445312 3.273438 -5.292969 Z M 3.164062 -1.628906 C 3.597656 -1.628906 3.96875 -1.703125 4.285156 -1.851562 C 4.582031 -1.988281 4.804688 -2.171875 4.957031 -2.394531 C 5.101562 -2.613281 5.175781 -2.847656 5.175781 -3.097656 C 5.175781 -3.394531 5.09375 -3.671875 4.933594 -3.929688 C 4.757812 -4.210938 4.515625 -4.449219 4.199219 -4.652344 C 3.878906 -4.859375 3.503906 -5.003906 3.074219 -5.078125 L 3.164062 -5.605469 L 3.703125 -5.605469 L 3.703125 -1.09375 L 3.164062 -1.09375 Z M 2.628906 -0.558594 L 2.628906 -6.242188 L 3.257812 -6.132812 C 3.832031 -6.03125 4.335938 -5.839844 4.78125 -5.554688 C 5.230469 -5.265625 5.585938 -4.914062 5.84375 -4.496094 C 6.113281 -4.0625 6.246094 -3.597656 6.246094 -3.097656 C 6.246094 -2.628906 6.113281 -2.195312 5.847656 -1.796875 C 5.582031 -1.40625 5.214844 -1.101562 4.738281 -0.878906 C 4.277344 -0.664062 3.753906 -0.558594 3.164062 -0.558594 Z M 2.628906 -0.558594 "/></g></g></g><g fill="#ffffff" fill-opacity="1"><g transform="translate(97.328597, 14.891081)"><g/></g></g><g fill="#ffffff" fill-opacity="1"><g transform="translate(100.611858, 14.891081)"><g><path d="M 0.257812 -0.175781 C 0.414062 -0.628906 0.527344 -1.070312 0.589844 -1.503906 C 0.65625 -1.945312 0.691406 -2.476562 0.691406 -3.097656 L 0.691406 -7.703125 C 0.691406 -8.320312 0.652344 -8.84375 0.574219 -9.277344 C 0.496094 -9.699219 0.367188 -10.132812 0.191406 -10.574219 L -0.0859375 -11.25 L 0.644531 -11.308594 C 1.535156 -11.382812 2.253906 -11.417969 2.796875 -11.417969 C 4.355469 -11.417969 5.691406 -11.179688 6.804688 -10.699219 C 7.949219 -10.210938 8.820312 -9.511719 9.417969 -8.609375 C 10.011719 -7.707031 10.308594 -6.667969 10.308594 -5.488281 C 10.308594 -4.242188 10 -3.164062 9.378906 -2.246094 C 8.765625 -1.335938 7.917969 -0.640625 6.84375 -0.164062 C 5.796875 0.304688 4.613281 0.535156 3.296875 0.535156 L 0.0117188 0.535156 Z M 1.269531 0.175781 L 0.765625 0 L 0.765625 -0.535156 L 3.296875 -0.535156 C 4.460938 -0.535156 5.5 -0.738281 6.410156 -1.144531 C 7.296875 -1.535156 7.992188 -2.105469 8.492188 -2.84375 C 8.988281 -3.582031 9.238281 -4.460938 9.238281 -5.488281 C 9.238281 -6.453125 9 -7.296875 8.519531 -8.019531 C 8.042969 -8.746094 7.332031 -9.308594 6.382812 -9.714844 C 5.40625 -10.136719 4.207031 -10.34375 2.796875 -10.34375 C 2.28125 -10.34375 1.59375 -10.3125 0.730469 -10.242188 L 0.6875 -10.777344 L 1.183594 -10.976562 C 1.390625 -10.46875 1.539062 -9.964844 1.628906 -9.464844 C 1.71875 -8.972656 1.761719 -8.386719 1.761719 -7.703125 L 1.761719 -3.097656 C 1.761719 -2.421875 1.726562 -1.835938 1.652344 -1.34375 C 1.574219 -0.847656 1.449219 -0.339844 1.269531 0.175781 Z M 3.242188 -1.867188 C 4.417969 -1.929688 5.339844 -2.261719 6.007812 -2.859375 C 6.648438 -3.433594 6.96875 -4.265625 6.96875 -5.355469 C 6.96875 -6.070312 6.820312 -6.695312 6.523438 -7.230469 C 6.230469 -7.757812 5.804688 -8.171875 5.253906 -8.480469 C 4.683594 -8.796875 4.003906 -8.972656 3.21875 -9.015625 L 3.246094 -9.550781 L 3.777344 -9.492188 C 3.726562 -9.003906 3.703125 -8.375 3.703125 -7.609375 L 3.703125 -3.429688 C 3.703125 -2.597656 3.734375 -1.921875 3.800781 -1.402344 L 3.269531 -1.332031 Z M 3.300781 -0.796875 L 2.804688 -0.769531 L 2.738281 -1.261719 C 2.667969 -1.832031 2.628906 -2.554688 2.628906 -3.429688 L 2.628906 -7.609375 C 2.628906 -8.410156 2.65625 -9.074219 2.710938 -9.605469 L 2.765625 -10.109375 L 3.273438 -10.085938 C 4.226562 -10.035156 5.058594 -9.8125 5.773438 -9.417969 C 6.503906 -9.011719 7.066406 -8.457031 7.457031 -7.753906 C 7.847656 -7.054688 8.039062 -6.257812 8.039062 -5.355469 C 8.039062 -3.945312 7.601562 -2.847656 6.722656 -2.0625 C 5.867188 -1.296875 4.726562 -0.875 3.300781 -0.796875 Z M 3.300781 -0.796875 "/></g></g></g><g fill="#ffffff" fill-opacity="1"><g transform="translate(110.975838, 14.891081)"><g><path d="M 0.257812 -0.175781 C 0.414062 -0.628906 0.527344 -1.070312 0.589844 -1.503906 C 0.65625 -1.945312 0.691406 -2.476562 0.691406 -3.097656 L 0.691406 -7.703125 C 0.691406 -8.328125 0.65625 -8.859375 0.589844 -9.296875 C 0.527344 -9.730469 0.414062 -10.175781 0.257812 -10.628906 L 0.0117188 -11.335938 L 7.796875 -11.335938 L 6.269531 -7.996094 L 5.757812 -8.296875 C 5.070312 -8.695312 4.203125 -8.910156 3.152344 -8.933594 L 3.164062 -9.46875 L 3.703125 -9.46875 L 3.703125 -6.199219 L 3.164062 -6.199219 L 3.164062 -6.734375 L 7.53125 -6.734375 L 5.722656 -3.65625 L 5.285156 -3.847656 C 4.722656 -4.09375 4.007812 -4.238281 3.140625 -4.277344 L 3.164062 -4.8125 L 3.703125 -4.8125 L 3.703125 -1.398438 L 3.164062 -1.398438 L 3.164062 -1.933594 C 4.011719 -1.933594 4.765625 -1.992188 5.417969 -2.109375 C 6.0625 -2.226562 6.691406 -2.417969 7.304688 -2.679688 L 7.640625 -2.824219 L 8.175781 -2.289062 L 7.003906 0.535156 L 0.0117188 0.535156 Z M 1.269531 0.175781 L 0.765625 0 L 0.765625 -0.535156 L 6.648438 -0.535156 L 6.648438 0 L 6.152344 -0.207031 L 7.050781 -2.367188 L 7.542969 -2.164062 L 7.164062 -1.785156 L 7.140625 -1.808594 L 7.519531 -2.1875 L 7.730469 -1.699219 C 7.042969 -1.398438 6.335938 -1.1875 5.609375 -1.054688 C 4.890625 -0.925781 4.078125 -0.863281 3.164062 -0.863281 L 2.628906 -0.863281 L 2.628906 -5.375 L 3.191406 -5.347656 C 4.1875 -5.300781 5.03125 -5.128906 5.714844 -4.832031 L 5.5 -4.339844 L 5.039062 -4.609375 L 6.132812 -6.472656 L 6.59375 -6.199219 L 6.59375 -5.664062 L 2.628906 -5.664062 L 2.628906 -10.019531 L 3.179688 -10.003906 C 4.414062 -9.976562 5.453125 -9.714844 6.296875 -9.21875 L 6.027344 -8.757812 L 5.539062 -8.980469 L 6.476562 -11.023438 L 6.964844 -10.800781 L 6.964844 -10.265625 L 0.765625 -10.265625 L 0.765625 -10.800781 L 1.269531 -10.976562 C 1.449219 -10.460938 1.574219 -9.957031 1.652344 -9.457031 C 1.726562 -8.964844 1.761719 -8.378906 1.761719 -7.703125 L 1.761719 -3.097656 C 1.761719 -2.421875 1.726562 -1.835938 1.652344 -1.34375 C 1.574219 -0.847656 1.449219 -0.339844 1.269531 0.175781 Z M 1.269531 0.175781 "/></g></g></g><g fill="#ffffff" fill-opacity="1"><g transform="translate(118.597201, 14.891081)"><g><path d="M 3.097656 0.667969 C 2.160156 0.667969 1.308594 0.515625 0.539062 0.207031 L 0.203125 0.0742188 L 0.203125 -3.410156 L 1.042969 -3.410156 L 1.203125 -3.21875 C 1.640625 -2.691406 2.011719 -2.332031 2.316406 -2.144531 C 2.578125 -1.976562 2.871094 -1.894531 3.191406 -1.894531 C 3.464844 -1.894531 3.691406 -1.976562 3.863281 -2.136719 C 4.027344 -2.285156 4.105469 -2.472656 4.105469 -2.703125 C 4.105469 -2.847656 4.078125 -2.96875 4.019531 -3.070312 C 3.949219 -3.195312 3.808594 -3.335938 3.597656 -3.5 C 3.347656 -3.691406 2.976562 -3.933594 2.484375 -4.21875 C 1.648438 -4.710938 1.050781 -5.230469 0.691406 -5.78125 C 0.320312 -6.347656 0.136719 -7.019531 0.136719 -7.792969 C 0.136719 -8.4375 0.300781 -9.039062 0.625 -9.597656 C 0.949219 -10.164062 1.410156 -10.613281 2.007812 -10.957031 C 2.605469 -11.300781 3.28125 -11.46875 4.035156 -11.46875 C 4.882812 -11.46875 5.671875 -11.292969 6.40625 -10.941406 L 6.707031 -10.796875 L 6.707031 -8.121094 L 6.007812 -7.886719 L 5.773438 -8.097656 C 5.457031 -8.378906 5.171875 -8.578125 4.910156 -8.683594 C 4.660156 -8.789062 4.390625 -8.839844 4.101562 -8.839844 C 3.804688 -8.839844 3.574219 -8.765625 3.414062 -8.613281 C 3.261719 -8.46875 3.1875 -8.296875 3.1875 -8.097656 C 3.1875 -7.875 3.277344 -7.65625 3.457031 -7.4375 C 3.679688 -7.171875 4.101562 -6.859375 4.714844 -6.503906 C 5.300781 -6.164062 5.773438 -5.847656 6.121094 -5.554688 C 6.507812 -5.230469 6.792969 -4.867188 6.988281 -4.464844 C 7.179688 -4.054688 7.277344 -3.585938 7.277344 -3.046875 C 7.277344 -2.277344 7.082031 -1.609375 6.695312 -1.039062 C 6.3125 -0.476562 5.800781 -0.046875 5.160156 0.242188 C 4.542969 0.527344 3.855469 0.667969 3.097656 0.667969 Z M 3.097656 -0.402344 C 3.699219 -0.402344 4.238281 -0.511719 4.71875 -0.730469 C 5.175781 -0.941406 5.539062 -1.242188 5.808594 -1.640625 C 6.070312 -2.027344 6.203125 -2.496094 6.203125 -3.046875 C 6.203125 -3.421875 6.140625 -3.742188 6.019531 -4.003906 C 5.894531 -4.269531 5.699219 -4.511719 5.433594 -4.734375 C 5.132812 -4.984375 4.710938 -5.265625 4.175781 -5.578125 C 3.453125 -5.996094 2.9375 -6.386719 2.636719 -6.753906 C 2.289062 -7.167969 2.113281 -7.617188 2.113281 -8.097656 C 2.113281 -8.601562 2.300781 -9.035156 2.675781 -9.390625 C 3.042969 -9.738281 3.519531 -9.914062 4.101562 -9.914062 C 4.535156 -9.914062 4.941406 -9.832031 5.324219 -9.675781 C 5.695312 -9.519531 6.085938 -9.257812 6.492188 -8.890625 L 6.132812 -8.492188 L 5.964844 -9.003906 L 6.003906 -9.015625 L 6.171875 -8.507812 L 5.636719 -8.507812 L 5.636719 -10.460938 L 6.171875 -10.460938 L 5.941406 -9.976562 C 5.355469 -10.257812 4.71875 -10.398438 4.035156 -10.398438 C 3.472656 -10.398438 2.972656 -10.273438 2.542969 -10.027344 C 2.109375 -9.78125 1.78125 -9.460938 1.550781 -9.0625 C 1.324219 -8.667969 1.207031 -8.246094 1.207031 -7.792969 C 1.207031 -7.234375 1.335938 -6.757812 1.589844 -6.367188 C 1.855469 -5.957031 2.335938 -5.550781 3.027344 -5.144531 C 3.558594 -4.835938 3.964844 -4.570312 4.25 -4.347656 C 4.574219 -4.097656 4.808594 -3.847656 4.949219 -3.601562 C 5.101562 -3.335938 5.179688 -3.035156 5.179688 -2.703125 C 5.179688 -2.160156 4.980469 -1.707031 4.589844 -1.347656 C 4.210938 -0.996094 3.746094 -0.824219 3.191406 -0.824219 C 2.667969 -0.824219 2.1875 -0.960938 1.746094 -1.234375 C 1.347656 -1.484375 0.890625 -1.917969 0.378906 -2.53125 L 0.792969 -2.875 L 0.792969 -2.339844 L 0.738281 -2.339844 L 0.738281 -2.875 L 1.273438 -2.875 L 1.273438 -0.289062 L 0.738281 -0.289062 L 0.9375 -0.789062 C 1.578125 -0.53125 2.296875 -0.402344 3.097656 -0.402344 Z M 3.097656 -0.402344 "/></g></g></g><g fill="#ffffff" fill-opacity="1"><g transform="translate(125.994409, 14.891081)"><g><path d="M 0.257812 -0.175781 C 0.414062 -0.628906 0.527344 -1.070312 0.589844 -1.503906 C 0.65625 -1.945312 0.691406 -2.476562 0.691406 -3.097656 L 0.691406 -7.703125 C 0.691406 -8.328125 0.65625 -8.859375 0.589844 -9.296875 C 0.527344 -9.730469 0.414062 -10.175781 0.257812 -10.628906 L 0.0117188 -11.335938 L 4.378906 -11.335938 L 4.132812 -10.628906 C 3.976562 -10.175781 3.867188 -9.730469 3.800781 -9.296875 C 3.734375 -8.859375 3.703125 -8.328125 3.703125 -7.703125 L 3.703125 -3.097656 C 3.703125 -2.476562 3.734375 -1.945312 3.800781 -1.503906 C 3.867188 -1.070312 3.976562 -0.628906 4.132812 -0.175781 L 4.378906 0.535156 L 0.0117188 0.535156 Z M 1.269531 0.175781 L 0.765625 0 L 0.765625 -0.535156 L 3.628906 -0.535156 L 3.628906 0 L 3.121094 0.175781 C 2.941406 -0.339844 2.816406 -0.847656 2.742188 -1.34375 C 2.667969 -1.835938 2.628906 -2.421875 2.628906 -3.097656 L 2.628906 -7.703125 C 2.628906 -8.378906 2.667969 -8.964844 2.742188 -9.457031 C 2.816406 -9.957031 2.941406 -10.460938 3.121094 -10.976562 L 3.628906 -10.800781 L 3.628906 -10.265625 L 0.765625 -10.265625 L 0.765625 -10.800781 L 1.269531 -10.976562 C 1.449219 -10.460938 1.574219 -9.957031 1.652344 -9.457031 C 1.726562 -8.964844 1.761719 -8.378906 1.761719 -7.703125 L 1.761719 -3.097656 C 1.761719 -2.421875 1.726562 -1.835938 1.652344 -1.34375 C 1.574219 -0.847656 1.449219 -0.339844 1.269531 0.175781 Z M 1.269531 0.175781 "/></g></g></g><g fill="#ffffff" fill-opacity="1"><g transform="translate(130.438022, 14.891081)"><g><path d="M 6.632812 -11.46875 C 7.710938 -11.46875 8.746094 -11.355469 9.734375 -11.125 L 10.152344 -11.03125 L 10.152344 -8.238281 L 9.511719 -8.027344 L 9.300781 -8.152344 C 8.78125 -8.460938 8.289062 -8.679688 7.828125 -8.808594 C 7.371094 -8.9375 6.902344 -9 6.421875 -9 C 5.804688 -9 5.253906 -8.859375 4.765625 -8.578125 C 4.28125 -8.296875 3.90625 -7.902344 3.632812 -7.386719 C 3.351562 -6.859375 3.214844 -6.242188 3.214844 -5.539062 C 3.214844 -4.8125 3.359375 -4.171875 3.65625 -3.625 C 3.945312 -3.085938 4.351562 -2.667969 4.871094 -2.371094 C 5.394531 -2.070312 5.992188 -1.921875 6.660156 -1.921875 C 7.230469 -1.921875 7.714844 -2.011719 8.105469 -2.199219 L 8.335938 -1.714844 L 7.800781 -1.714844 L 7.800781 -2.558594 C 7.800781 -3.5625 7.582031 -4.433594 7.148438 -5.175781 L 6.675781 -5.984375 L 11.414062 -5.984375 L 11.097656 -5.238281 C 11.015625 -5.046875 10.949219 -4.796875 10.894531 -4.484375 C 10.839844 -4.164062 10.808594 -3.84375 10.808594 -3.523438 L 10.808594 -2.308594 C 10.808594 -1.609375 10.867188 -1.082031 10.980469 -0.734375 L 11.140625 -0.25 L 10.664062 -0.0664062 C 10.0625 0.164062 9.40625 0.34375 8.703125 0.472656 C 7.996094 0.601562 7.300781 0.667969 6.609375 0.667969 C 5.140625 0.667969 3.910156 0.40625 2.921875 -0.113281 C 1.914062 -0.644531 1.175781 -1.351562 0.703125 -2.234375 C 0.238281 -3.097656 0.00390625 -4.050781 0.00390625 -5.089844 C 0.00390625 -6.328125 0.285156 -7.433594 0.839844 -8.398438 C 1.402344 -9.371094 2.191406 -10.128906 3.203125 -10.667969 C 4.207031 -11.203125 5.347656 -11.46875 6.632812 -11.46875 Z M 6.632812 -10.398438 C 5.527344 -10.398438 4.550781 -10.171875 3.707031 -9.722656 C 2.875 -9.277344 2.230469 -8.660156 1.769531 -7.863281 C 1.308594 -7.0625 1.078125 -6.136719 1.078125 -5.089844 C 1.078125 -4.230469 1.265625 -3.449219 1.644531 -2.738281 C 2.015625 -2.046875 2.609375 -1.488281 3.421875 -1.0625 C 4.253906 -0.621094 5.316406 -0.402344 6.609375 -0.402344 C 7.234375 -0.402344 7.867188 -0.460938 8.507812 -0.578125 C 9.148438 -0.695312 9.738281 -0.859375 10.28125 -1.066406 L 10.472656 -0.566406 L 9.960938 -0.402344 C 9.8125 -0.859375 9.738281 -1.496094 9.738281 -2.308594 L 9.738281 -3.523438 C 9.738281 -3.902344 9.773438 -4.285156 9.839844 -4.667969 C 9.90625 -5.0625 9.996094 -5.390625 10.109375 -5.65625 L 10.605469 -5.445312 L 10.605469 -4.910156 L 7.609375 -4.910156 L 7.609375 -5.445312 L 8.074219 -5.71875 C 8.605469 -4.808594 8.871094 -3.753906 8.871094 -2.558594 L 8.871094 -1.375 L 8.5625 -1.230469 C 8.027344 -0.976562 7.390625 -0.847656 6.660156 -0.847656 C 5.800781 -0.847656 5.027344 -1.046875 4.335938 -1.441406 C 3.640625 -1.839844 3.101562 -2.398438 2.714844 -3.117188 C 2.332031 -3.824219 2.140625 -4.632812 2.140625 -5.539062 C 2.140625 -6.417969 2.324219 -7.203125 2.683594 -7.886719 C 3.054688 -8.585938 3.570312 -9.125 4.230469 -9.503906 C 4.882812 -9.882812 5.617188 -10.070312 6.421875 -10.070312 C 7 -10.070312 7.5625 -9.996094 8.117188 -9.839844 C 8.667969 -9.6875 9.246094 -9.433594 9.847656 -9.074219 L 9.574219 -8.613281 L 9.40625 -9.121094 L 9.445312 -9.132812 L 9.613281 -8.625 L 9.078125 -8.625 L 9.078125 -10.605469 L 9.613281 -10.605469 L 9.492188 -10.082031 C 8.585938 -10.292969 7.632812 -10.398438 6.632812 -10.398438 Z M 6.632812 -10.398438 "/></g></g></g><g fill="#ffffff" fill-opacity="1"><g transform="translate(141.579969, 14.891081)"><g><path d="M 11.3125 -3.523438 C 11.3125 -2.785156 11.339844 -2.15625 11.394531 -1.632812 C 11.449219 -1.113281 11.53125 -0.605469 11.640625 -0.117188 L 11.789062 0.535156 L 8.167969 0.535156 L 8.058594 0.144531 C 7.980469 -0.132812 7.726562 -0.550781 7.300781 -1.113281 L 2.949219 -6.851562 L 3.375 -7.175781 L 3.914062 -7.175781 L 3.914062 -3.523438 C 3.914062 -2.746094 3.945312 -2.113281 4.007812 -1.625 C 4.070312 -1.148438 4.179688 -0.660156 4.335938 -0.160156 L 4.558594 0.535156 L 0.316406 0.535156 L 0.53125 -0.15625 C 0.6875 -0.671875 0.796875 -1.167969 0.859375 -1.644531 C 0.921875 -2.128906 0.953125 -2.753906 0.953125 -3.523438 L 0.953125 -9.257812 L 1.492188 -9.257812 L 1.0625 -8.933594 C 0.824219 -9.25 0.605469 -9.507812 0.410156 -9.707031 C 0.210938 -9.910156 -0.0195312 -10.117188 -0.285156 -10.332031 L -0.484375 -10.496094 L -0.484375 -11.335938 L 3.613281 -11.335938 L 3.738281 -10.976562 C 3.824219 -10.730469 3.929688 -10.496094 4.0625 -10.277344 C 4.199219 -10.046875 4.4375 -9.710938 4.777344 -9.269531 L 9.316406 -3.277344 L 8.890625 -2.953125 L 8.355469 -2.953125 L 8.355469 -7.28125 C 8.355469 -8.046875 8.320312 -8.675781 8.257812 -9.15625 C 8.195312 -9.632812 8.085938 -10.128906 7.929688 -10.644531 L 7.714844 -11.335938 L 11.976562 -11.335938 L 11.746094 -10.636719 C 11.582031 -10.128906 11.46875 -9.640625 11.40625 -9.164062 C 11.34375 -8.675781 11.3125 -8.046875 11.3125 -7.28125 Z M 10.238281 -3.523438 L 10.238281 -7.28125 C 10.238281 -8.09375 10.273438 -8.769531 10.34375 -9.300781 C 10.414062 -9.84375 10.542969 -10.402344 10.726562 -10.96875 L 11.238281 -10.800781 L 11.238281 -10.265625 L 8.441406 -10.265625 L 8.441406 -10.800781 L 8.953125 -10.957031 C 9.128906 -10.386719 9.253906 -9.832031 9.320312 -9.296875 C 9.390625 -8.765625 9.425781 -8.09375 9.425781 -7.28125 L 9.425781 -1.359375 L 3.925781 -8.617188 C 3.5625 -9.089844 3.300781 -9.460938 3.140625 -9.730469 C 2.972656 -10.011719 2.832031 -10.3125 2.722656 -10.628906 L 3.230469 -10.800781 L 3.230469 -10.265625 L 0.0546875 -10.265625 L 0.0546875 -10.800781 L 0.589844 -10.800781 L 0.589844 -10.75 L 0.0546875 -10.75 L 0.390625 -11.164062 C 0.6875 -10.921875 0.949219 -10.6875 1.175781 -10.457031 C 1.402344 -10.226562 1.648438 -9.9375 1.917969 -9.582031 L 2.027344 -9.441406 L 2.027344 -3.523438 C 2.027344 -2.707031 1.992188 -2.035156 1.921875 -1.507812 C 1.851562 -0.972656 1.730469 -0.417969 1.554688 0.15625 L 1.042969 0 L 1.042969 -0.535156 L 3.824219 -0.535156 L 3.824219 0 L 3.3125 0.160156 C 3.136719 -0.394531 3.015625 -0.945312 2.945312 -1.488281 C 2.875 -2.019531 2.839844 -2.699219 2.839844 -3.523438 L 2.839844 -8.769531 L 8.15625 -1.761719 C 8.664062 -1.09375 8.972656 -0.554688 9.089844 -0.144531 L 8.574219 0 L 8.574219 -0.535156 L 11.117188 -0.535156 L 11.117188 0 L 10.59375 0.117188 C 10.476562 -0.414062 10.386719 -0.957031 10.328125 -1.519531 C 10.269531 -2.078125 10.238281 -2.746094 10.238281 -3.523438 Z M 10.238281 -3.523438 "/></g></g></g><g fill="#494c4f" fill-opacity="1"><g transform="translate(1.402519, 14.891081)"><g><path d="M 6 0.125 C 4.925781 0.125 3.972656 -0.101562 3.140625 -0.5625 C 2.316406 -1.03125 1.675781 -1.671875 1.21875 -2.484375 C 0.769531 -3.296875 0.546875 -4.207031 0.546875 -5.21875 C 0.546875 -6.363281 0.816406 -7.367188 1.359375 -8.234375 C 1.910156 -9.097656 2.660156 -9.765625 3.609375 -10.234375 C 4.554688 -10.703125 5.597656 -10.9375 6.734375 -10.9375 C 7.203125 -10.9375 7.632812 -10.90625 8.03125 -10.84375 C 8.425781 -10.789062 8.835938 -10.695312 9.265625 -10.5625 L 9.265625 -8.59375 L 9.234375 -8.578125 C 8.835938 -8.835938 8.382812 -9.039062 7.875 -9.1875 C 7.363281 -9.34375 6.851562 -9.421875 6.34375 -9.421875 C 5.644531 -9.421875 5.015625 -9.25 4.453125 -8.90625 C 3.898438 -8.5625 3.460938 -8.082031 3.140625 -7.46875 C 2.828125 -6.863281 2.671875 -6.179688 2.671875 -5.421875 C 2.671875 -4.679688 2.820312 -4.007812 3.125 -3.40625 C 3.4375 -2.800781 3.859375 -2.328125 4.390625 -1.984375 C 4.929688 -1.648438 5.539062 -1.484375 6.21875 -1.484375 C 6.882812 -1.484375 7.503906 -1.59375 8.078125 -1.8125 C 8.648438 -2.03125 9.128906 -2.320312 9.515625 -2.6875 L 9.546875 -2.671875 L 9.4375 -0.6875 C 8.46875 -0.144531 7.320312 0.125 6 0.125 Z M 6 0.125 "/></g></g></g><g fill="#494c4f" fill-opacity="1"><g transform="translate(11.384121, 14.891081)"><g><path d="M 8.828125 -10.796875 L 8.828125 -10.765625 C 8.503906 -10.429688 8.144531 -9.90625 7.75 -9.1875 L 5.28125 -4.828125 L 5.28125 -3.09375 C 5.28125 -2.445312 5.3125 -1.890625 5.375 -1.421875 C 5.445312 -0.953125 5.566406 -0.476562 5.734375 0 L 2.875 0 C 3.039062 -0.476562 3.160156 -0.945312 3.234375 -1.40625 C 3.304688 -1.863281 3.34375 -2.425781 3.34375 -3.09375 L 3.34375 -4.78125 L 0.875 -9.0625 C 0.613281 -9.5 0.382812 -9.847656 0.1875 -10.109375 C -0.0078125 -10.367188 -0.210938 -10.585938 -0.421875 -10.765625 L -0.421875 -10.796875 L 2.546875 -10.796875 C 2.523438 -10.691406 2.515625 -10.582031 2.515625 -10.46875 C 2.515625 -10.0625 2.65625 -9.613281 2.9375 -9.125 L 4.34375 -6.671875 L 5.734375 -9.171875 C 6.003906 -9.671875 6.140625 -10.125 6.140625 -10.53125 C 6.140625 -10.644531 6.128906 -10.734375 6.109375 -10.796875 Z M 8.828125 -10.796875 "/></g></g></g><g fill="#494c4f" fill-opacity="1"><g transform="translate(19.440508, 14.891081)"><g><path d="M 6 0.125 C 4.925781 0.125 3.972656 -0.101562 3.140625 -0.5625 C 2.316406 -1.03125 1.675781 -1.671875 1.21875 -2.484375 C 0.769531 -3.296875 0.546875 -4.207031 0.546875 -5.21875 C 0.546875 -6.363281 0.816406 -7.367188 1.359375 -8.234375 C 1.910156 -9.097656 2.660156 -9.765625 3.609375 -10.234375 C 4.554688 -10.703125 5.597656 -10.9375 6.734375 -10.9375 C 7.203125 -10.9375 7.632812 -10.90625 8.03125 -10.84375 C 8.425781 -10.789062 8.835938 -10.695312 9.265625 -10.5625 L 9.265625 -8.59375 L 9.234375 -8.578125 C 8.835938 -8.835938 8.382812 -9.039062 7.875 -9.1875 C 7.363281 -9.34375 6.851562 -9.421875 6.34375 -9.421875 C 5.644531 -9.421875 5.015625 -9.25 4.453125 -8.90625 C 3.898438 -8.5625 3.460938 -8.082031 3.140625 -7.46875 C 2.828125 -6.863281 2.671875 -6.179688 2.671875 -5.421875 C 2.671875 -4.679688 2.820312 -4.007812 3.125 -3.40625 C 3.4375 -2.800781 3.859375 -2.328125 4.390625 -1.984375 C 4.929688 -1.648438 5.539062 -1.484375 6.21875 -1.484375 C 6.882812 -1.484375 7.503906 -1.59375 8.078125 -1.8125 C 8.648438 -2.03125 9.128906 -2.320312 9.515625 -2.6875 L 9.546875 -2.671875 L 9.4375 -0.6875 C 8.46875 -0.144531 7.320312 0.125 6 0.125 Z M 6 0.125 "/></g></g></g><g fill="#494c4f" fill-opacity="1"><g transform="translate(29.42211, 14.891081)"><g><path d="M 0.765625 0 C 0.929688 -0.476562 1.046875 -0.953125 1.109375 -1.421875 C 1.179688 -1.890625 1.21875 -2.445312 1.21875 -3.09375 L 1.21875 -7.703125 C 1.21875 -8.347656 1.179688 -8.90625 1.109375 -9.375 C 1.046875 -9.84375 0.929688 -10.316406 0.765625 -10.796875 L 3.625 -10.796875 C 3.457031 -10.316406 3.335938 -9.84375 3.265625 -9.375 C 3.203125 -8.90625 3.171875 -8.347656 3.171875 -7.703125 L 3.171875 -1.453125 C 3.847656 -1.503906 4.59375 -1.628906 5.40625 -1.828125 C 6.21875 -2.023438 6.847656 -2.238281 7.296875 -2.46875 L 7.3125 -2.4375 L 6.3125 0 Z M 0.765625 0 "/></g></g></g><g fill="#494c4f" fill-opacity="1"><g transform="translate(36.304982, 14.891081)"><g><path d="M 6.28125 -10.9375 C 7.332031 -10.9375 8.296875 -10.710938 9.171875 -10.265625 C 10.054688 -9.816406 10.753906 -9.179688 11.265625 -8.359375 C 11.785156 -7.535156 12.046875 -6.59375 12.046875 -5.53125 C 12.046875 -4.445312 11.789062 -3.472656 11.28125 -2.609375 C 10.769531 -1.742188 10.066406 -1.070312 9.171875 -0.59375 C 8.285156 -0.113281 7.300781 0.125 6.21875 0.125 C 5.09375 0.125 4.097656 -0.125 3.234375 -0.625 C 2.367188 -1.132812 1.703125 -1.8125 1.234375 -2.65625 C 0.773438 -3.507812 0.546875 -4.410156 0.546875 -5.359375 C 0.546875 -6.367188 0.796875 -7.296875 1.296875 -8.140625 C 1.804688 -8.992188 2.5 -9.671875 3.375 -10.171875 C 4.25 -10.679688 5.21875 -10.9375 6.28125 -10.9375 Z M 5.90625 -9.453125 C 5.320312 -9.453125 4.78125 -9.304688 4.28125 -9.015625 C 3.789062 -8.722656 3.398438 -8.300781 3.109375 -7.75 C 2.816406 -7.195312 2.671875 -6.5625 2.671875 -5.84375 C 2.671875 -5.0625 2.835938 -4.320312 3.171875 -3.625 C 3.503906 -2.9375 3.96875 -2.382812 4.5625 -1.96875 C 5.164062 -1.5625 5.851562 -1.359375 6.625 -1.359375 C 7.257812 -1.359375 7.828125 -1.519531 8.328125 -1.84375 C 8.835938 -2.164062 9.226562 -2.609375 9.5 -3.171875 C 9.78125 -3.734375 9.921875 -4.347656 9.921875 -5.015625 C 9.921875 -5.804688 9.738281 -6.539062 9.375 -7.21875 C 9.019531 -7.894531 8.535156 -8.4375 7.921875 -8.84375 C 7.304688 -9.25 6.632812 -9.453125 5.90625 -9.453125 Z M 5.90625 -9.453125 "/></g></g></g><g fill="#494c4f" fill-opacity="1"><g transform="translate(48.936915, 14.891081)"><g><path d="M 3.46875 -10.796875 C 4.363281 -10.796875 5.125 -10.648438 5.75 -10.359375 C 6.382812 -10.066406 6.859375 -9.671875 7.171875 -9.171875 C 7.492188 -8.679688 7.65625 -8.132812 7.65625 -7.53125 C 7.65625 -6.851562 7.492188 -6.257812 7.171875 -5.75 C 6.847656 -5.25 6.390625 -4.863281 5.796875 -4.59375 C 5.203125 -4.320312 4.507812 -4.1875 3.71875 -4.1875 C 3.519531 -4.1875 3.335938 -4.195312 3.171875 -4.21875 L 3.171875 -3.09375 C 3.171875 -2.445312 3.203125 -1.890625 3.265625 -1.421875 C 3.335938 -0.953125 3.457031 -0.476562 3.625 0 L 0.765625 0 C 0.929688 -0.476562 1.046875 -0.953125 1.109375 -1.421875 C 1.179688 -1.890625 1.21875 -2.445312 1.21875 -3.09375 L 1.21875 -7.703125 C 1.21875 -8.347656 1.179688 -8.90625 1.109375 -9.375 C 1.046875 -9.84375 0.929688 -10.316406 0.765625 -10.796875 Z M 3.171875 -5.0625 C 3.929688 -5.15625 4.535156 -5.414062 4.984375 -5.84375 C 5.429688 -6.28125 5.65625 -6.804688 5.65625 -7.421875 C 5.65625 -8.035156 5.4375 -8.546875 5 -8.953125 C 4.570312 -9.367188 3.976562 -9.59375 3.21875 -9.625 C 3.1875 -9.238281 3.171875 -8.765625 3.171875 -8.203125 Z M 3.171875 -5.0625 "/></g></g></g><g fill="#494c4f" fill-opacity="1"><g transform="translate(57.006592, 14.891081)"><g><path d="M 3.09375 0.125 C 2.226562 0.125 1.441406 -0.015625 0.734375 -0.296875 L 0.734375 -2.875 L 0.796875 -2.875 C 1.265625 -2.300781 1.675781 -1.90625 2.03125 -1.6875 C 2.382812 -1.46875 2.769531 -1.359375 3.1875 -1.359375 C 3.601562 -1.359375 3.945312 -1.484375 4.21875 -1.734375 C 4.5 -1.992188 4.640625 -2.316406 4.640625 -2.703125 C 4.640625 -2.941406 4.585938 -3.148438 4.484375 -3.328125 C 4.378906 -3.515625 4.191406 -3.710938 3.921875 -3.921875 C 3.648438 -4.128906 3.257812 -4.382812 2.75 -4.6875 C 1.988281 -5.132812 1.453125 -5.597656 1.140625 -6.078125 C 0.828125 -6.554688 0.671875 -7.128906 0.671875 -7.796875 C 0.671875 -8.335938 0.804688 -8.847656 1.078125 -9.328125 C 1.359375 -9.804688 1.753906 -10.191406 2.265625 -10.484375 C 2.785156 -10.785156 3.375 -10.9375 4.03125 -10.9375 C 4.800781 -10.9375 5.515625 -10.773438 6.171875 -10.453125 L 6.171875 -8.5 L 6.125 -8.5 C 5.769531 -8.820312 5.429688 -9.046875 5.109375 -9.171875 C 4.796875 -9.304688 4.457031 -9.375 4.09375 -9.375 C 3.65625 -9.375 3.304688 -9.25 3.046875 -9 C 2.785156 -8.75 2.65625 -8.445312 2.65625 -8.09375 C 2.65625 -7.738281 2.785156 -7.40625 3.046875 -7.09375 C 3.304688 -6.78125 3.769531 -6.429688 4.4375 -6.046875 C 5 -5.710938 5.441406 -5.410156 5.765625 -5.140625 C 6.097656 -4.867188 6.34375 -4.566406 6.5 -4.234375 C 6.65625 -3.898438 6.734375 -3.503906 6.734375 -3.046875 C 6.734375 -2.390625 6.570312 -1.820312 6.25 -1.34375 C 5.925781 -0.863281 5.488281 -0.5 4.9375 -0.25 C 4.382812 0 3.769531 0.125 3.09375 0.125 Z M 3.09375 0.125 "/></g></g></g><g fill="#494c4f" fill-opacity="1"><g transform="translate(64.403794, 14.891081)"><g/></g></g><g fill="#494c4f" fill-opacity="1"><g transform="translate(67.687056, 14.891081)"><g><path d="M 13.890625 -10.796875 C 13.535156 -10.128906 13.179688 -9.160156 12.828125 -7.890625 L 10.6875 0 L 8.828125 0 L 6.859375 -5.71875 L 4.859375 0 L 3.015625 0 L 0.859375 -7.890625 C 0.492188 -9.210938 0.132812 -10.179688 -0.21875 -10.796875 L 2.546875 -10.796875 C 2.503906 -10.535156 2.484375 -10.285156 2.484375 -10.046875 C 2.484375 -9.441406 2.597656 -8.722656 2.828125 -7.890625 L 4.09375 -3.234375 L 6.8125 -10.875 L 6.890625 -10.875 L 9.59375 -3.265625 L 10.859375 -7.890625 C 11.085938 -8.742188 11.203125 -9.457031 11.203125 -10.03125 C 11.203125 -10.28125 11.179688 -10.535156 11.140625 -10.796875 Z M 13.890625 -10.796875 "/></g></g></g><g fill="#494c4f" fill-opacity="1"><g transform="translate(81.413403, 14.891081)"><g><path d="M 0.765625 0 C 0.929688 -0.476562 1.046875 -0.953125 1.109375 -1.421875 C 1.179688 -1.890625 1.21875 -2.445312 1.21875 -3.09375 L 1.21875 -7.703125 C 1.21875 -8.347656 1.179688 -8.90625 1.109375 -9.375 C 1.046875 -9.84375 0.929688 -10.316406 0.765625 -10.796875 L 6.96875 -10.796875 L 6.03125 -8.75 C 5.257812 -9.195312 4.304688 -9.4375 3.171875 -9.46875 L 3.171875 -6.203125 L 6.59375 -6.203125 L 5.5 -4.34375 C 4.875 -4.613281 4.097656 -4.769531 3.171875 -4.8125 L 3.171875 -1.390625 C 4.046875 -1.390625 4.828125 -1.453125 5.515625 -1.578125 C 6.203125 -1.703125 6.867188 -1.90625 7.515625 -2.1875 L 7.546875 -2.15625 L 6.640625 0 Z M 0.765625 0 "/></g></g></g><g fill="#494c4f" fill-opacity="1"><g transform="translate(89.034765, 14.891081)"><g><path d="M 5.796875 -5.796875 C 6.460938 -5.398438 6.945312 -4.988281 7.25 -4.5625 C 7.5625 -4.144531 7.71875 -3.648438 7.71875 -3.078125 C 7.71875 -2.472656 7.535156 -1.9375 7.171875 -1.46875 C 6.816406 -1.007812 6.332031 -0.648438 5.71875 -0.390625 C 5.101562 -0.128906 4.4375 0 3.71875 0 L 0.765625 0 C 0.929688 -0.476562 1.046875 -0.953125 1.109375 -1.421875 C 1.179688 -1.890625 1.21875 -2.445312 1.21875 -3.09375 L 1.21875 -7.703125 C 1.21875 -8.347656 1.179688 -8.90625 1.109375 -9.375 C 1.046875 -9.84375 0.929688 -10.316406 0.765625 -10.796875 L 3.6875 -10.796875 C 4.382812 -10.796875 4.992188 -10.675781 5.515625 -10.4375 C 6.046875 -10.195312 6.457031 -9.863281 6.75 -9.4375 C 7.039062 -9.019531 7.1875 -8.539062 7.1875 -8 C 7.1875 -7.570312 7.066406 -7.164062 6.828125 -6.78125 C 6.585938 -6.40625 6.242188 -6.078125 5.796875 -5.796875 Z M 3.171875 -5.8125 C 3.796875 -5.945312 4.289062 -6.207031 4.65625 -6.59375 C 5.03125 -6.976562 5.21875 -7.410156 5.21875 -7.890625 C 5.21875 -8.222656 5.125 -8.53125 4.9375 -8.8125 C 4.757812 -9.09375 4.507812 -9.3125 4.1875 -9.46875 C 3.875 -9.632812 3.535156 -9.71875 3.171875 -9.71875 Z M 3.171875 -1.09375 C 3.679688 -1.09375 4.128906 -1.179688 4.515625 -1.359375 C 4.898438 -1.546875 5.191406 -1.789062 5.390625 -2.09375 C 5.597656 -2.40625 5.703125 -2.738281 5.703125 -3.09375 C 5.703125 -3.488281 5.59375 -3.859375 5.375 -4.203125 C 5.164062 -4.554688 4.867188 -4.851562 4.484375 -5.09375 C 4.109375 -5.34375 3.671875 -5.515625 3.171875 -5.609375 Z M 3.171875 -1.09375 "/></g></g></g><g fill="#494c4f" fill-opacity="1"><g transform="translate(97.328597, 14.891081)"><g/></g></g><g fill="#494c4f" fill-opacity="1"><g transform="translate(100.611858, 14.891081)"><g><path d="M 0.765625 0 C 0.929688 -0.476562 1.046875 -0.953125 1.109375 -1.421875 C 1.179688 -1.890625 1.21875 -2.445312 1.21875 -3.09375 L 1.21875 -7.703125 C 1.21875 -8.347656 1.175781 -8.898438 1.09375 -9.359375 C 1.007812 -9.828125 0.875 -10.300781 0.6875 -10.78125 C 1.5625 -10.84375 2.265625 -10.875 2.796875 -10.875 C 4.285156 -10.875 5.550781 -10.648438 6.59375 -10.203125 C 7.632812 -9.753906 8.421875 -9.125 8.953125 -8.3125 C 9.492188 -7.5 9.765625 -6.554688 9.765625 -5.484375 C 9.765625 -4.347656 9.484375 -3.367188 8.921875 -2.546875 C 8.367188 -1.722656 7.601562 -1.09375 6.625 -0.65625 C 5.644531 -0.21875 4.535156 0 3.296875 0 Z M 3.265625 -1.328125 C 4.566406 -1.398438 5.597656 -1.773438 6.359375 -2.453125 C 7.117188 -3.140625 7.5 -4.109375 7.5 -5.359375 C 7.5 -6.160156 7.328125 -6.867188 6.984375 -7.484375 C 6.640625 -8.097656 6.144531 -8.582031 5.5 -8.9375 C 4.863281 -9.300781 4.113281 -9.503906 3.25 -9.546875 C 3.195312 -9.035156 3.171875 -8.390625 3.171875 -7.609375 L 3.171875 -3.421875 C 3.171875 -2.578125 3.203125 -1.878906 3.265625 -1.328125 Z M 3.265625 -1.328125 "/></g></g></g><g fill="#494c4f" fill-opacity="1"><g transform="translate(110.975838, 14.891081)"><g><path d="M 0.765625 0 C 0.929688 -0.476562 1.046875 -0.953125 1.109375 -1.421875 C 1.179688 -1.890625 1.21875 -2.445312 1.21875 -3.09375 L 1.21875 -7.703125 C 1.21875 -8.347656 1.179688 -8.90625 1.109375 -9.375 C 1.046875 -9.84375 0.929688 -10.316406 0.765625 -10.796875 L 6.96875 -10.796875 L 6.03125 -8.75 C 5.257812 -9.195312 4.304688 -9.4375 3.171875 -9.46875 L 3.171875 -6.203125 L 6.59375 -6.203125 L 5.5 -4.34375 C 4.875 -4.613281 4.097656 -4.769531 3.171875 -4.8125 L 3.171875 -1.390625 C 4.046875 -1.390625 4.828125 -1.453125 5.515625 -1.578125 C 6.203125 -1.703125 6.867188 -1.90625 7.515625 -2.1875 L 7.546875 -2.15625 L 6.640625 0 Z M 0.765625 0 "/></g></g></g><g fill="#494c4f" fill-opacity="1"><g transform="translate(118.597201, 14.891081)"><g><path d="M 3.09375 0.125 C 2.226562 0.125 1.441406 -0.015625 0.734375 -0.296875 L 0.734375 -2.875 L 0.796875 -2.875 C 1.265625 -2.300781 1.675781 -1.90625 2.03125 -1.6875 C 2.382812 -1.46875 2.769531 -1.359375 3.1875 -1.359375 C 3.601562 -1.359375 3.945312 -1.484375 4.21875 -1.734375 C 4.5 -1.992188 4.640625 -2.316406 4.640625 -2.703125 C 4.640625 -2.941406 4.585938 -3.148438 4.484375 -3.328125 C 4.378906 -3.515625 4.191406 -3.710938 3.921875 -3.921875 C 3.648438 -4.128906 3.257812 -4.382812 2.75 -4.6875 C 1.988281 -5.132812 1.453125 -5.597656 1.140625 -6.078125 C 0.828125 -6.554688 0.671875 -7.128906 0.671875 -7.796875 C 0.671875 -8.335938 0.804688 -8.847656 1.078125 -9.328125 C 1.359375 -9.804688 1.753906 -10.191406 2.265625 -10.484375 C 2.785156 -10.785156 3.375 -10.9375 4.03125 -10.9375 C 4.800781 -10.9375 5.515625 -10.773438 6.171875 -10.453125 L 6.171875 -8.5 L 6.125 -8.5 C 5.769531 -8.820312 5.429688 -9.046875 5.109375 -9.171875 C 4.796875 -9.304688 4.457031 -9.375 4.09375 -9.375 C 3.65625 -9.375 3.304688 -9.25 3.046875 -9 C 2.785156 -8.75 2.65625 -8.445312 2.65625 -8.09375 C 2.65625 -7.738281 2.785156 -7.40625 3.046875 -7.09375 C 3.304688 -6.78125 3.769531 -6.429688 4.4375 -6.046875 C 5 -5.710938 5.441406 -5.410156 5.765625 -5.140625 C 6.097656 -4.867188 6.34375 -4.566406 6.5 -4.234375 C 6.65625 -3.898438 6.734375 -3.503906 6.734375 -3.046875 C 6.734375 -2.390625 6.570312 -1.820312 6.25 -1.34375 C 5.925781 -0.863281 5.488281 -0.5 4.9375 -0.25 C 4.382812 0 3.769531 0.125 3.09375 0.125 Z M 3.09375 0.125 "/></g></g></g><g fill="#494c4f" fill-opacity="1"><g transform="translate(125.994409, 14.891081)"><g><path d="M 0.765625 0 C 0.929688 -0.476562 1.046875 -0.953125 1.109375 -1.421875 C 1.179688 -1.890625 1.21875 -2.445312 1.21875 -3.09375 L 1.21875 -7.703125 C 1.21875 -8.347656 1.179688 -8.90625 1.109375 -9.375 C 1.046875 -9.84375 0.929688 -10.316406 0.765625 -10.796875 L 3.625 -10.796875 C 3.457031 -10.316406 3.335938 -9.84375 3.265625 -9.375 C 3.203125 -8.90625 3.171875 -8.347656 3.171875 -7.703125 L 3.171875 -3.09375 C 3.171875 -2.445312 3.203125 -1.890625 3.265625 -1.421875 C 3.335938 -0.953125 3.457031 -0.476562 3.625 0 Z M 0.765625 0 "/></g></g></g><g fill="#494c4f" fill-opacity="1"><g transform="translate(130.438022, 14.891081)"><g><path d="M 6.640625 -10.9375 C 7.671875 -10.9375 8.660156 -10.828125 9.609375 -10.609375 L 9.609375 -8.625 L 9.578125 -8.609375 C 9.015625 -8.941406 8.476562 -9.175781 7.96875 -9.3125 C 7.46875 -9.457031 6.953125 -9.53125 6.421875 -9.53125 C 5.710938 -9.53125 5.070312 -9.363281 4.5 -9.03125 C 3.925781 -8.707031 3.476562 -8.238281 3.15625 -7.625 C 2.832031 -7.019531 2.671875 -6.320312 2.671875 -5.53125 C 2.671875 -4.71875 2.835938 -3.992188 3.171875 -3.359375 C 3.515625 -2.734375 3.988281 -2.25 4.59375 -1.90625 C 5.207031 -1.5625 5.894531 -1.390625 6.65625 -1.390625 C 7.3125 -1.390625 7.867188 -1.5 8.328125 -1.71875 L 8.328125 -2.5625 C 8.328125 -3.65625 8.085938 -4.617188 7.609375 -5.453125 L 10.609375 -5.453125 C 10.503906 -5.222656 10.421875 -4.929688 10.359375 -4.578125 C 10.296875 -4.222656 10.265625 -3.867188 10.265625 -3.515625 L 10.265625 -2.3125 C 10.265625 -1.550781 10.332031 -0.96875 10.46875 -0.5625 C 9.894531 -0.34375 9.269531 -0.171875 8.59375 -0.046875 C 7.925781 0.0664062 7.265625 0.125 6.609375 0.125 C 5.222656 0.125 4.078125 -0.113281 3.171875 -0.59375 C 2.265625 -1.070312 1.597656 -1.703125 1.171875 -2.484375 C 0.753906 -3.273438 0.546875 -4.144531 0.546875 -5.09375 C 0.546875 -6.238281 0.800781 -7.25 1.3125 -8.125 C 1.820312 -9.007812 2.535156 -9.695312 3.453125 -10.1875 C 4.378906 -10.6875 5.441406 -10.9375 6.640625 -10.9375 Z M 6.640625 -10.9375 "/></g></g></g><g fill="#494c4f" fill-opacity="1"><g transform="translate(141.579969, 14.891081)"><g><path d="M 10.78125 -3.515625 C 10.78125 -2.765625 10.804688 -2.117188 10.859375 -1.578125 C 10.921875 -1.035156 11.003906 -0.507812 11.109375 0 L 8.578125 0 C 8.472656 -0.34375 8.191406 -0.820312 7.734375 -1.4375 L 3.375 -7.171875 L 3.375 -3.515625 C 3.375 -2.722656 3.40625 -2.070312 3.46875 -1.5625 C 3.539062 -1.050781 3.660156 -0.53125 3.828125 0 L 1.046875 0 C 1.210938 -0.539062 1.328125 -1.0625 1.390625 -1.5625 C 1.453125 -2.070312 1.484375 -2.722656 1.484375 -3.515625 L 1.484375 -9.25 C 1.234375 -9.59375 1 -9.867188 0.78125 -10.078125 C 0.570312 -10.296875 0.328125 -10.519531 0.046875 -10.75 L 0.046875 -10.796875 L 3.234375 -10.796875 C 3.328125 -10.515625 3.445312 -10.25 3.59375 -10 C 3.75 -9.75 4.003906 -9.394531 4.359375 -8.9375 L 8.890625 -2.953125 L 8.890625 -7.28125 C 8.890625 -8.070312 8.851562 -8.71875 8.78125 -9.21875 C 8.71875 -9.726562 8.601562 -10.253906 8.4375 -10.796875 L 11.234375 -10.796875 C 11.054688 -10.265625 10.9375 -9.742188 10.875 -9.234375 C 10.8125 -8.722656 10.78125 -8.070312 10.78125 -7.28125 Z M 10.78125 -3.515625 "/></g></g></g></g></g></svg>